<svg width="1200" height="750" xmlns="http://www.w3.org/2000/svg"><rect width="1200" height="750" fill="#07111f"/><text x="50" y="60" fill="white" font-size="34" font-family="Arial">Provenance-Aware RAG Architecture</text><rect x="400" y="100" width="400" height="70" rx="18" fill="#101b35" stroke="#5b8cff" stroke-width="2"/><text x="470" y="145" fill="white" font-size="20" font-family="Arial">Enterprise Knowledge Sources</text><line x1="600" y1="170" x2="600" y2="240" stroke="#7ea6ff" stroke-width="3"/><rect x="360" y="240" width="480" height="80" rx="18" fill="#101b35" stroke="#5b8cff" stroke-width="2"/><text x="460" y="285" fill="white" font-size="20" font-family="Arial">Document Processing Layer</text><line x1="600" y1="320" x2="600" y2="390" stroke="#7ea6ff" stroke-width="3"/><rect x="330" y="390" width="540" height="90" rx="18" fill="#101b35" stroke="#5b8cff" stroke-width="2"/><text x="430" y="440" fill="white" font-size="20" font-family="Arial">Retrieval and Provenance Engine</text><line x1="600" y1="480" x2="600" y2="560" stroke="#7ea6ff" stroke-width="3"/><rect x="120" y="560" width="180" height="80" rx="18" fill="#101b35" stroke="#5b8cff" stroke-width="2"/><text x="165" y="605" fill="white" font-size="20" font-family="Arial">Lineage</text><rect x="360" y="560" width="180" height="80" rx="18" fill="#101b35" stroke="#5b8cff" stroke-width="2"/><text x="395" y="605" fill="white" font-size="20" font-family="Arial">Confidence</text><rect x="600" y="560" width="180" height="80" rx="18" fill="#101b35" stroke="#5b8cff" stroke-width="2"/><text x="645" y="605" fill="white" font-size="20" font-family="Arial">Temporal</text><rect x="840" y="560" width="180" height="80" rx="18" fill="#101b35" stroke="#5b8cff" stroke-width="2"/><text x="895" y="605" fill="white" font-size="20" font-family="Arial">Audit</text></svg>